<svg width="73" height="86" viewBox="0 0 73 86" fill="none" xmlns="http://www.w3.org/2000/svg">
<path d="M15.5162 65.5863L11.1994 22.0863C10.5571 15.6135 15.6411 10 22.1456 10H50.0747C56.6788 10 61.7943 15.7783 60.9936 22.3336L55.6806 65.8336C55.0066 71.352 50.3211 75.5 44.7618 75.5H26.4624C20.808 75.5 16.0746 71.2131 15.5162 65.5863Z" fill="#CFF4FF" stroke="#1A1A1A" stroke-width="5"/>
<path d="M51.0279 32H20.9265C19.1122 32 17.7131 33.598 17.9529 35.3965L22.1529 66.8965C22.3516 68.3869 23.6229 69.5 25.1265 69.5H46.4079C47.8966 69.5 49.1601 68.4083 49.3761 66.9353L53.9962 35.4353C54.2617 33.6246 52.8581 32 51.0279 32Z" fill="white" stroke="white" stroke-width="2"/>
<path d="M20 47L23 67" stroke="#D9D9D9" stroke-width="4" stroke-linecap="round"/>
<path d="M18 34L19 41" stroke="#D9D9D9" stroke-width="4" stroke-linecap="round"/>
</svg>
