<svg width="115" height="98" viewBox="0 0 115 98" fill="none" xmlns="http://www.w3.org/2000/svg">
<path d="M53.602 34.4572C50.1759 34.7817 42.8782 39.4539 39.7952 35.4126C36.8924 31.6061 45.1425 27.2262 47.6384 26.224C49.8735 25.3246 58.93 21.9203 60.7393 24.0781C62.8593 26.6061 54.9782 33.2516 53.602 34.4572C51.9044 34.6183 56.7449 31.7035 53.602 34.4572ZM99.5989 40.2648C103.749 47.4529 106.384 57.0997 101.649 64.7386C99.5762 68.0816 96.0268 70.8191 93.0734 73.3864C90.8996 75.2773 86.8471 80.3514 84.1288 80.7152C85.0068 77.4386 81.7367 55.124 75.9381 59.6112C73.2477 61.6926 75.3735 71.3133 75.441 74.2303C75.5023 76.8538 75.8211 79.5765 75.4025 82.1768C75.0198 84.5486 73.5319 86.3315 74.8062 88.7519C76.8709 92.6775 83.3424 92.2759 86.9832 93.2885C91.9319 94.6653 97.4404 97.6649 102.635 97.665C107.177 97.6648 110.296 93.7363 106.51 90.1667C103.53 87.3534 97.9333 86.3507 94.0848 85.3194C100.578 80.6036 108.218 75.2121 111.873 67.7981C115.434 60.5749 115.001 52.8269 113.223 45.2224C108.953 26.9648 92.9338 16.0753 74.9936 14.0793C71.5976 13.7013 67.0685 14.8166 64.1495 13.0301C62.5167 12.0313 61.2175 9.8131 59.6161 8.60997C57.8838 7.30836 55.9293 6.19214 54.0097 5.19269C46.1154 1.07941 36.7276 -0.290131 27.9316 0.0508557C21.361 0.304866 13.7884 2.23665 8.09183 5.3993C5.00716 7.11249 1.43837 10.3153 0.57202 13.8254C0.372214 14.6366 -0.16455 17.3869 0.689599 18.0823C2.26727 19.3669 2.0717 16.9748 2.54263 16.1025C7.15737 7.54614 18.4584 5.73881 27.4416 5.59148C32.8006 5.50279 38.1936 6.35051 43.3249 7.86207C46.5655 8.81628 54.8363 11.2511 56.0743 14.5793C48.1244 14.4071 37.7443 20.1323 33.4904 26.7483C26.2395 38.0214 37.9355 46.1088 48.5675 44.092C54.4077 42.9834 60.9345 39.6908 64.5558 34.8457C66.1013 32.7787 67.2977 30.2481 67.9625 27.7597C68.7918 24.6574 67.7754 23.7877 71.3866 23.9491C82.7628 24.4586 93.9042 30.4014 99.5989 40.2648Z" fill="#171717"/>
</svg>
